<?xml version="1.0" encoding="utf-8"?>
<!-- Generator: Adobe Illustrator 21.0.0, SVG Export Plug-In . SVG Version: 6.00 Build 0)  -->
<svg version="1.1" id="Layer_1" xmlns="http://www.w3.org/2000/svg" xmlns:xlink="http://www.w3.org/1999/xlink" x="0px" y="0px"
	 viewBox="0 0 140 140" style="enable-background:new 0 0 140 140;" xml:space="preserve">
<style type="text/css">
	.st0{fill:#03ACEF;}
</style>
<g>
	<path class="st0" d="M70,135l-31.6-18.9C28,109.8,21.1,98.8,19.9,86.7l0-0.3l-3-67.7l12.6-1.9C41,15,52.4,11.9,63.3,7.6L70,5
		l6.7,2.6c10.9,4.3,22.2,7.4,33.8,9.1l12.6,1.9l-3,68c-1.1,12.1-8,23.1-18.5,29.4L70,135z M40.8,112.1L70,129.6l29.2-17.5
		c9.2-5.5,15.3-15.2,16.3-25.8l0-0.1l2.8-63.5l-8.5-1.3c-11.9-1.8-23.6-5-34.8-9.4l-5-2l-5,2c-11.2,4.4-22.9,7.6-34.8,9.4l-8.5,1.3
		l2.8,63.5l0,0.1C25.5,97,31.6,106.6,40.8,112.1L40.8,112.1z"/>
	<path class="st0" d="M70,126l-27.6-16.6c-8.4-5-13.9-13.8-14.8-23.5l0-0.1l-2.7-60.6l5.8-0.9c12.1-1.9,24.1-5.1,35.5-9.6l3.9-1.5
		l3.9,1.5c11.4,4.5,23.3,7.7,35.5,9.6l5.8,0.9L112.4,86c-0.9,9.7-6.4,18.5-14.8,23.5L70,126z M32.2,85.6c0.8,8.2,5.5,15.7,12.5,19.9
		L70,120.7l25.3-15.1c7.1-4.2,11.8-11.7,12.5-19.9l2.5-56.5l-1.7-0.3c-12.5-1.9-24.7-5.2-36.5-9.8L70,18.2l-2.2,0.9
		c-11.7,4.6-24,7.9-36.5,9.8l-1.7,0.3L32.2,85.6z"/>
	<path class="st0" d="M102.3,65c0-0.1,0-0.3,0-0.4c0-0.4-0.1-0.8-0.1-1.1c0-0.1,0-0.3,0-0.4c0-0.5-0.1-0.9-0.2-1.4
		c0-0.2-0.1-0.3-0.1-0.5c-0.1-0.3-0.1-0.6-0.2-0.9c0-0.2-0.1-0.4-0.1-0.6c-0.1-0.3-0.1-0.6-0.2-0.9c-0.1-0.3-0.2-0.6-0.2-1
		c-0.1-0.2-0.1-0.5-0.2-0.7c-0.1-0.3-0.2-0.5-0.2-0.8c-0.1-0.2-0.1-0.3-0.2-0.5c-0.3-0.9-0.7-1.8-1.1-2.7c0-0.1-0.1-0.1-0.1-0.2
		c-3-6.4-7.9-11.7-14.1-15c-0.3-0.2-0.7-0.4-1-0.5c-0.2-0.1-0.3-0.2-0.5-0.2c-0.3-0.2-0.6-0.3-1-0.4c-0.2-0.1-0.3-0.1-0.5-0.2
		c-0.3-0.1-0.6-0.2-0.9-0.3c-0.2-0.1-0.3-0.1-0.5-0.2c-0.4-0.1-0.8-0.3-1.2-0.4c-0.1,0-0.3-0.1-0.4-0.1c-0.4-0.1-0.7-0.2-1.1-0.3
		c-0.1,0-0.2-0.1-0.3-0.1c-0.4-0.1-0.9-0.2-1.3-0.3c-0.1,0-0.3-0.1-0.4-0.1c-0.4-0.1-0.9-0.2-1.3-0.2c-0.1,0-0.2,0-0.3,0
		c-0.4-0.1-0.8-0.1-1.3-0.2c-0.1,0-0.2,0-0.3,0c-0.5,0-0.9-0.1-1.4-0.1c-0.1,0-0.2,0-0.3,0c-0.5,0-1,0-1.5,0c-0.5,0-1,0-1.5,0
		c-0.1,0-0.3,0-0.4,0c-0.4,0-0.8,0.1-1.1,0.1c-0.1,0-0.3,0-0.4,0c-0.5,0-0.9,0.1-1.4,0.2c-0.2,0-0.3,0.1-0.5,0.1
		c-0.3,0.1-0.6,0.1-0.9,0.2c-0.2,0-0.4,0.1-0.6,0.1c-0.3,0.1-0.6,0.1-0.9,0.2c-0.3,0.1-0.6,0.2-1,0.2c-0.2,0.1-0.5,0.1-0.7,0.2
		c-0.3,0.1-0.5,0.2-0.8,0.2c-0.2,0.1-0.3,0.1-0.5,0.2c-0.9,0.3-1.8,0.7-2.7,1.1c-0.1,0-0.1,0.1-0.2,0.1c-6.4,3-11.7,7.9-15,14.1
		c-0.2,0.3-0.4,0.7-0.5,1c-0.1,0.2-0.2,0.3-0.2,0.5c-0.2,0.3-0.3,0.6-0.4,1c-0.1,0.2-0.1,0.3-0.2,0.5c-0.1,0.3-0.2,0.6-0.3,0.9
		c-0.1,0.2-0.1,0.3-0.2,0.5c-0.1,0.4-0.3,0.8-0.4,1.2c0,0.1-0.1,0.3-0.1,0.4c-0.1,0.4-0.2,0.7-0.3,1.1c0,0.1-0.1,0.2-0.1,0.3
		c-0.1,0.4-0.2,0.9-0.3,1.3c0,0.1-0.1,0.3-0.1,0.4c-0.1,0.4-0.2,0.9-0.2,1.3c0,0.1,0,0.2,0,0.3c-0.1,0.4-0.1,0.8-0.2,1.3
		c0,0.1,0,0.2,0,0.3c0,0.5-0.1,0.9-0.1,1.4c0,0.1,0,0.2,0,0.3c0,0.5,0,1,0,1.5c0,17.8,14.5,32.4,32.4,32.4s32.4-14.5,32.4-32.4
		C102.4,66,102.4,65.5,102.3,65z M70,94.2c-15.3,0-27.8-12.5-27.8-27.8c0-0.4,0-0.9,0-1.3c0-0.2,0-0.3,0-0.5c0-0.3,0-0.6,0.1-0.8
		c0-0.2,0-0.4,0.1-0.6c0-0.2,0.1-0.5,0.1-0.7c0-0.2,0.1-0.4,0.1-0.6c0-0.2,0.1-0.4,0.1-0.6c0-0.2,0.1-0.5,0.1-0.7
		c0-0.2,0.1-0.3,0.1-0.5c0.1-0.3,0.1-0.5,0.2-0.8c0,0,0,0,0,0c0.2-0.7,0.4-1.5,0.7-2.2l0,0c2.6-7.2,8-13,14.9-16.1
		c0.9-0.4,1.7-0.7,2.6-1c0,0,0,0,0,0c0.4-0.1,0.9-0.3,1.3-0.4c0,0,0.1,0,0.1,0c0.4-0.1,0.8-0.2,1.3-0.3c0.1,0,0.1,0,0.2,0
		c0.4-0.1,0.8-0.2,1.2-0.2c0.1,0,0.2,0,0.2,0c0.4-0.1,0.8-0.1,1.1-0.2c0.1,0,0.2,0,0.3,0c0.4,0,0.7-0.1,1.1-0.1c0.1,0,0.2,0,0.3,0
		c0.5,0,1,0,1.5,0c0.4,0,0.9,0,1.3,0c0.2,0,0.3,0,0.5,0c0.3,0,0.6,0,0.8,0.1c0.2,0,0.4,0,0.6,0.1c0.2,0,0.5,0.1,0.7,0.1
		c0.2,0,0.4,0.1,0.6,0.1c0.2,0,0.4,0.1,0.6,0.1c0.2,0,0.5,0.1,0.7,0.1c0.2,0,0.3,0.1,0.5,0.1c0.3,0.1,0.5,0.1,0.8,0.2c0,0,0,0,0,0
		c0.7,0.2,1.5,0.4,2.2,0.7l0,0c7.2,2.6,13,8,16.1,14.9c0.4,0.9,0.7,1.7,1,2.6c0,0,0,0,0,0c0.1,0.4,0.3,0.9,0.4,1.3c0,0,0,0.1,0,0.1
		c0.1,0.4,0.2,0.8,0.3,1.3c0,0.1,0,0.1,0,0.2c0.1,0.4,0.2,0.8,0.2,1.2c0,0.1,0,0.2,0,0.2c0.1,0.4,0.1,0.8,0.2,1.1c0,0.1,0,0.2,0,0.3
		c0,0.4,0.1,0.7,0.1,1.1c0,0.1,0,0.2,0,0.3c0,0.5,0,1,0,1.5C97.8,81.8,85.3,94.2,70,94.2z"/>
	<path class="st0" d="M89.4,60l-8,2.7c-1.1-3.3-3.6-5.9-6.7-7.2l3.3-7.8c0,0-4.2-1.6-8-1.6c-11.3,0-20.4,9.2-20.4,20.4
		c0,11.3,9.2,20.4,20.4,20.4c11.3,0,20.4-9.2,20.4-20.4C90.4,62.3,89.4,60,89.4,60z"/>
</g>
</svg>
