<?xml version="1.0" encoding="utf-8"?>
<!-- Generator: Adobe Illustrator 21.0.0, SVG Export Plug-In . SVG Version: 6.00 Build 0)  -->
<svg version="1.1" id="Layer_1" xmlns="http://www.w3.org/2000/svg" xmlns:xlink="http://www.w3.org/1999/xlink" x="0px" y="0px"
	 viewBox="0 0 140 140" style="enable-background:new 0 0 140 140;" xml:space="preserve">
<style type="text/css">
	.st0{fill:#FFFFFF;}
	.st1{fill:#03ACEF;}
</style>
<g>
	<path class="st0" d="M70,139l-33.5-20.1c-11.1-6.6-18.4-18.3-19.6-31.2l0-0.3l-3.2-71.9l13.3-2c12.3-1.9,24.3-5.1,35.9-9.7L70,1
		l7.1,2.8c11.5,4.6,23.6,7.8,35.9,9.7l13.3,2l-3.2,72.2c-1.2,12.9-8.5,24.5-19.6,31.2L70,139z"/>
	<path class="st1" d="M70,139l-33.5-20.1c-11.1-6.6-18.4-18.3-19.6-31.2l0-0.3l-3.2-71.9l13.3-2c12.3-1.9,24.3-5.1,35.9-9.7L70,1
		l7.1,2.8c11.5,4.6,23.6,7.8,35.9,9.7l13.3,2l-3.2,72.2c-1.2,12.9-8.5,24.5-19.6,31.2L70,139z M39,114.7l31,18.6l31-18.6
		c9.8-5.8,16.2-16.1,17.3-27.4l0-0.1l3-67.4l-9-1.4c-12.6-1.9-25.1-5.3-36.9-10L70,6.3l-5.3,2.1c-11.9,4.7-24.3,8-36.9,10l-9,1.4
		l3,67.4l0,0.1C22.8,98.6,29.2,108.9,39,114.7L39,114.7z"/>
	<path class="st1" d="M70,129.5l-29.3-17.6C31.8,106.6,25.9,97.3,25,87l0-0.1l-2.9-64.4l6.1-0.9c12.9-2,25.5-5.4,37.7-10.2L70,9.8
		l4.1,1.6c12.1,4.8,24.8,8.2,37.7,10.2l6.1,0.9L115,87c-0.9,10.3-6.8,19.6-15.7,24.9L70,129.5z M29.9,86.6
		c0.8,8.7,5.8,16.6,13.3,21.1L70,123.8l26.8-16.1c7.5-4.5,12.5-12.4,13.3-21.1l2.7-59.9l-1.8-0.3c-13.2-2-26.3-5.5-38.7-10.4L70,15
		l-2.3,0.9C55.2,20.9,42.2,24.4,29,26.4l-1.8,0.3L29.9,86.6z"/>
	<path class="st1" d="M104.3,64.7c0-0.2,0-0.3,0-0.5c0-0.4-0.1-0.8-0.1-1.2c0-0.1,0-0.3,0-0.4c-0.1-0.5-0.1-1-0.2-1.5
		c0-0.2-0.1-0.3-0.1-0.5c-0.1-0.3-0.1-0.7-0.2-1c0-0.2-0.1-0.4-0.1-0.6c-0.1-0.3-0.1-0.6-0.2-0.9c-0.1-0.3-0.2-0.7-0.3-1
		c-0.1-0.2-0.1-0.5-0.2-0.7c-0.1-0.3-0.2-0.5-0.3-0.8c-0.1-0.2-0.1-0.3-0.2-0.5c-0.3-1-0.7-2-1.2-2.9c0-0.1-0.1-0.1-0.1-0.2
		c-3.1-6.8-8.4-12.4-15-16c-0.4-0.2-0.7-0.4-1.1-0.6c-0.2-0.1-0.3-0.2-0.5-0.3c-0.3-0.2-0.7-0.3-1-0.5c-0.2-0.1-0.4-0.2-0.5-0.2
		c-0.3-0.1-0.6-0.3-0.9-0.4c-0.2-0.1-0.3-0.1-0.5-0.2c-0.4-0.1-0.8-0.3-1.2-0.4c-0.1,0-0.3-0.1-0.5-0.1c-0.4-0.1-0.7-0.2-1.1-0.3
		c-0.1,0-0.2-0.1-0.3-0.1c-0.5-0.1-0.9-0.2-1.4-0.3c-0.1,0-0.3-0.1-0.4-0.1c-0.5-0.1-0.9-0.2-1.4-0.3c-0.1,0-0.2,0-0.3,0
		c-0.4-0.1-0.9-0.1-1.3-0.2c-0.1,0-0.2,0-0.3,0c-0.5,0-1-0.1-1.5-0.1c-0.1,0-0.2,0-0.3,0c-0.5,0-1,0-1.6,0c-0.5,0-1.1,0-1.6,0
		c-0.2,0-0.3,0-0.5,0c-0.4,0-0.8,0.1-1.2,0.1c-0.1,0-0.3,0-0.4,0c-0.5,0.1-1,0.1-1.5,0.2c-0.2,0-0.3,0.1-0.5,0.1
		c-0.3,0.1-0.7,0.1-1,0.2c-0.2,0-0.4,0.1-0.6,0.1c-0.3,0.1-0.6,0.1-0.9,0.2c-0.3,0.1-0.7,0.2-1,0.3c-0.2,0.1-0.5,0.1-0.7,0.2
		c-0.3,0.1-0.5,0.2-0.8,0.3c-0.2,0.1-0.3,0.1-0.5,0.2c-1,0.3-2,0.7-2.9,1.2c-0.1,0-0.1,0.1-0.2,0.1c-6.8,3.1-12.4,8.4-16,15
		c-0.2,0.4-0.4,0.7-0.6,1.1c-0.1,0.2-0.2,0.3-0.3,0.5c-0.2,0.3-0.3,0.7-0.5,1c-0.1,0.2-0.2,0.4-0.2,0.5c-0.1,0.3-0.3,0.6-0.4,0.9
		c-0.1,0.2-0.1,0.3-0.2,0.5c-0.1,0.4-0.3,0.8-0.4,1.2c0,0.1-0.1,0.3-0.1,0.5c-0.1,0.4-0.2,0.7-0.3,1.1c0,0.1-0.1,0.2-0.1,0.3
		c-0.1,0.5-0.2,0.9-0.3,1.4c0,0.1-0.1,0.3-0.1,0.4C36.2,60,36.1,60.5,36,61c0,0.1,0,0.2,0,0.3c-0.1,0.4-0.1,0.9-0.2,1.3
		c0,0.1,0,0.2,0,0.3c0,0.5-0.1,1-0.1,1.5c0,0.1,0,0.2,0,0.3c0,0.5,0,1,0,1.6c0,18.9,15.4,34.4,34.4,34.4s34.4-15.4,34.4-34.4
		C104.4,65.7,104.3,65.2,104.3,64.7z M70,95.7c-16.3,0-29.5-13.2-29.5-29.5c0-0.5,0-0.9,0-1.4c0-0.2,0-0.3,0-0.5
		c0-0.3,0-0.6,0.1-0.9c0-0.2,0-0.4,0.1-0.6c0-0.2,0.1-0.5,0.1-0.7c0-0.2,0.1-0.5,0.1-0.7c0-0.2,0.1-0.4,0.1-0.6
		c0-0.2,0.1-0.5,0.1-0.7c0-0.2,0.1-0.3,0.1-0.5c0.1-0.3,0.1-0.6,0.2-0.8c0,0,0,0,0,0c0.2-0.8,0.5-1.6,0.7-2.3l0,0
		c2.7-7.6,8.5-13.8,15.9-17c0.9-0.4,1.8-0.8,2.8-1.1c0,0,0,0,0,0c0.5-0.1,0.9-0.3,1.4-0.4c0,0,0.1,0,0.1,0c0.4-0.1,0.9-0.2,1.3-0.3
		c0.1,0,0.1,0,0.2,0c0.4-0.1,0.8-0.2,1.3-0.2c0.1,0,0.2,0,0.2,0c0.4-0.1,0.8-0.1,1.2-0.2c0.1,0,0.2,0,0.3,0c0.4,0,0.8-0.1,1.2-0.1
		c0.1,0,0.2,0,0.4,0c0.5,0,1,0,1.6,0c0.5,0,0.9,0,1.4,0c0.2,0,0.3,0,0.5,0c0.3,0,0.6,0,0.9,0.1c0.2,0,0.4,0,0.6,0.1
		c0.2,0,0.5,0.1,0.7,0.1c0.2,0,0.5,0.1,0.7,0.1c0.2,0,0.4,0.1,0.6,0.1c0.2,0,0.5,0.1,0.7,0.1c0.2,0,0.3,0.1,0.5,0.1
		c0.3,0.1,0.6,0.1,0.8,0.2c0,0,0,0,0,0c0.8,0.2,1.6,0.5,2.3,0.7l0,0c7.6,2.7,13.8,8.5,17,15.9c0.4,0.9,0.8,1.8,1.1,2.8c0,0,0,0,0,0
		c0.1,0.5,0.3,0.9,0.4,1.4c0,0,0,0.1,0,0.1c0.1,0.4,0.2,0.9,0.3,1.3c0,0.1,0,0.1,0,0.2c0.1,0.4,0.2,0.8,0.2,1.3c0,0.1,0,0.2,0,0.2
		c0.1,0.4,0.1,0.8,0.2,1.2c0,0.1,0,0.2,0,0.3c0,0.4,0.1,0.8,0.1,1.2c0,0.1,0,0.2,0,0.4c0,0.5,0,1,0,1.6C99.5,82.5,86.3,95.7,70,95.7
		z"/>
	<path class="st1" d="M90.6,59.3l-8.5,2.9c-1.2-3.5-3.8-6.3-7.1-7.7l3.5-8.3c0,0-4.5-1.7-8.5-1.7c-12,0-21.7,9.7-21.7,21.7
		C48.3,78.2,58,88,70,88c12,0,21.7-9.7,21.7-21.7C91.7,61.9,90.6,59.3,90.6,59.3z"/>
</g>
</svg>
